<?xml version="1.0" standalone="no"?>
<!DOCTYPE svg PUBLIC "-//W3C//DTD SVG 20010904//EN"
 "http://www.w3.org/TR/2001/REC-SVG-20010904/DTD/svg10.dtd">
<svg version="1.0" xmlns="http://www.w3.org/2000/svg"
 width="200.000000pt" height="200.000000pt" viewBox="0 0 200.000000 200.000000"
 preserveAspectRatio="xMidYMid meet">

<g transform="translate(0.000000,200.000000) scale(0.100000,-0.100000)"
fill="#008aff" stroke="none">
<path d="M1185 1640 c-73 -16 -117 -73 -117 -150 0 -90 61 -152 152 -152 90 0
152 61 152 152 0 102 -88 173 -187 150z"/>
<path d="M580 1364 c-96 -20 -222 -86 -264 -137 -78 -95 -99 -217 -54 -307 26
-51 56 -70 111 -70 44 0 82 20 114 60 40 49 39 57 -10 62 -64 7 -100 28 -120
71 -19 37 -19 38 5 85 14 29 40 58 66 77 37 26 53 30 107 30 55 0 68 -4 101
-30 20 -17 42 -38 47 -46 12 -19 -102 -322 -144 -385 -91 -134 -245 -178 -353
-101 -28 20 -29 20 -42 2 -8 -10 -14 -38 -14 -61 0 -55 32 -94 102 -124 101
-43 221 -10 303 83 76 87 135 213 191 412 l17 60 17 -40 c20 -46 59 -209 92
-378 12 -64 25 -117 29 -117 4 0 112 124 239 275 127 151 233 275 235 275 2 0
-21 -73 -52 -161 -48 -141 -55 -169 -51 -219 5 -76 40 -130 103 -160 41 -20
58 -22 144 -18 83 4 105 9 151 34 61 33 130 108 178 194 l33 59 -30 15 c-16 9
-34 16 -38 16 -4 0 -21 -24 -36 -53 -33 -64 -81 -113 -119 -122 -56 -14 -55
-11 130 523 l60 172 -168 0 -167 0 -173 -195 c-95 -107 -176 -195 -179 -195
-4 0 -13 27 -19 59 -15 69 -77 199 -123 254 -86 103 -238 140 -419 101z"/>
</g>
</svg>
