<?xml version="1.0" standalone="no"?>
<!DOCTYPE svg PUBLIC "-//W3C//DTD SVG 20010904//EN"
 "http://www.w3.org/TR/2001/REC-SVG-20010904/DTD/svg10.dtd">
<svg id="amia-logo" version="1.0" xmlns="http://www.w3.org/2000/svg"
 width="200.000000pt" height="200.000000pt" viewBox="0 0 200.000000 200.000000"
 preserveAspectRatio="xMidYMid meet">

<g transform="translate(0.000000,200.000000) scale(0.100000,-0.100000)"  fill="currentColor"
stroke="none">
<path d="M818 1955 c-96 -16 -161 -37 -265 -86 -258 -122 -452 -365 -525 -656
-31 -125 -31 -331 0 -456 29 -116 70 -211 135 -310 69 -106 129 -172 219 -240
222 -169 491 -237 763 -192 159 25 310 91 443 192 177 135 310 346 360 571 25
115 23 321 -6 435 -29 116 -70 211 -135 310 -71 108 -132 174 -228 247 -217
163 -492 230 -761 185z m440 -335 c18 -11 41 -34 52 -52 71 -117 -71 -259
-188 -188 -18 11 -41 34 -52 52 -71 117 71 259 188 188z m-365 -320 c107 -51
203 -198 241 -372 6 -27 16 -18 177 162 93 104 178 194 187 199 13 7 332 4
332 -3 0 -1 -52 -151 -115 -334 -63 -183 -115 -337 -115 -342 0 -6 13 -10 29
-10 35 0 79 40 118 108 43 75 40 74 83 52 l39 -20 -32 -56 c-66 -115 -157
-202 -236 -224 -119 -34 -229 -20 -292 37 -79 71 -81 151 -10 352 28 79 50
145 49 146 -2 2 -109 -123 -238 -277 -129 -154 -236 -276 -237 -271 -1 4 -18
89 -38 188 -33 166 -81 352 -90 344 -2 -2 -15 -47 -30 -99 -67 -238 -182 -408
-306 -449 -140 -46 -306 42 -285 152 3 19 12 41 19 50 11 16 15 15 50 -10 84
-60 211 -37 299 55 59 61 68 78 137 262 67 175 66 176 -11 220 -50 28 -118 31
-165 7 -39 -20 -91 -80 -99 -114 -17 -65 44 -123 127 -123 27 0 49 -4 49 -8 0
-16 -59 -91 -85 -108 -32 -21 -103 -24 -137 -5 -74 39 -97 187 -45 292 46 94
132 160 265 204 114 37 280 35 365 -5z"/>
</g>
</svg>
